/* XPM */
static char *bitcoin24[] = {
/* columns rows colors chars-per-pixel */
"24 24 179 2 ",
"   c #010100",
".  c #080701",
"X  c #0C0A03",
"o  c #0D0C08",
"O  c #100E02",
"+  c #171404",
"@  c #15140D",
"#  c #1E1C0D",
"$  c #181707",
"%  c #1D1B11",
"&  c #211D05",
"*  c #2B2302",
"=  c #28271B",
"-  c #393723",
";  c #383623",
":  c #413603",
">  c #493E07",
",  c #4F4304",
"<  c #514304",
"1  c #4A4516",
"2  c #5F581F",
"3  c #645306",
"4  c #6C5A06",
"5  c #746307",
"6  c #444127",
"7  c #4F4C38",
"8  c #585432",
"9  c #696226",
"0  c #787034",
"q  c #5A5741",
"w  c #696546",
"e  c #737054",
"r  c #897509",
"t  c #8D7908",
"y  c #87780B",
"u  c #93740E",
"i  c #9A790D",
"p  c #907D09",
"a  c #866B1C",
"s  c #8C6F15",
"d  c #86741C",
"f  c #8A7815",
"g  c #947A14",
"h  c #977913",
"j  c #A07D0A",
"k  c #88792E",
"l  c #847C39",
"z  c #887B49",
"x  c #897841",
"c  c #8A7D53",
"v  c #95820A",
"b  c #9B840A",
"n  c #9A8C1D",
"m  c #968310",
"M  c #A18A0A",
"N  c #A98508",
"B  c #B88C05",
"V  c #B59E0B",
"C  c #B99507",
"Z  c #A5951C",
"A  c #AD9D1D",
"S  c #A89512",
"D  c #BBA30D",
"F  c #B6A313",
"G  c #9C8D2C",
"H  c #9F9126",
"J  c #998E32",
"K  c #9A903C",
"L  c #A29321",
"P  c #A5972C",
"I  c #BAAA2A",
"U  c #B9A83F",
"Y  c #C79703",
"T  c #C2AA0B",
"R  c #CAA307",
"E  c #D6A707",
"W  c #D3B90B",
"Q  c #C5B219",
"!  c #D3B711",
"~  c #C2AE27",
"^  c #C6B322",
"/  c #C8B836",
"(  c #D9C10D",
")  c #F5DE1E",
"_  c #D7C325",
"`  c #E1CC24",
"'  c #EBD522",
"]  c #F1DB22",
"[  c #E0CE39",
"{  c #F4DD32",
"}  c #FEE623",
"|  c #FFE923",
" . c #FEE529",
".. c #FFEB2C",
"X. c #FFEA36",
"o. c #FFE93D",
"O. c #FFE733",
"+. c #898042",
"@. c #999046",
"#. c #898154",
"$. c #88835A",
"%. c #908A5C",
"&. c #9F985C",
"*. c #A08F4A",
"=. c #A2994B",
"-. c #AA9F4A",
";. c #A0995A",
":. c #B7AB4A",
">. c #BAA857",
",. c #868262",
"<. c #8A876A",
"1. c #8B8765",
"2. c #918C62",
"3. c #9F9A6D",
"4. c #9B9774",
"5. c #A59E61",
"6. c #A49C7E",
"7. c #B4AB62",
"8. c #B9AF60",
"9. c #B8AF6B",
"0. c #AAA273",
"q. c #A9A47D",
"w. c #A5A077",
"e. c #BAB479",
"r. c #C7B54B",
"t. c #C8B957",
"y. c #C7BA7B",
"u. c #D3C54C",
"i. c #EAD741",
"p. c #F3DA43",
"a. c #FFEA45",
"s. c #FFED4D",
"d. c #FFEC52",
"f. c #FCE956",
"g. c #C7C07F",
"h. c #C8C076",
"j. c #D8CE7F",
"k. c #DFD479",
"l. c #FFEF6A",
"z. c #FEED65",
"x. c #FFF065",
"c. c #FFF16C",
"v. c #FFEF70",
"b. c #FFF375",
"n. c #FFF27C",
"m. c #AEA682",
"M. c #B3AD81",
"N. c #BCB58C",
"B. c #BFBAA1",
"V. c #C5BF88",
"C. c #C8C183",
"Z. c #C6C08A",
"A. c #DCD285",
"S. c #D3CD9F",
"D. c #E8DF8F",
"F. c #F8E98A",
"G. c #FFF48B",
"H. c #F5EB96",
"J. c #FFF594",
"K. c #FDF49C",
"L. c #FFF89C",
"P. c #CBC5A8",
"I. c #CEC9B1",
"U. c #ECE4A8",
"Y. c #F5EBA3",
"T. c #F7EEA8",
"R. c #FFF5A1",
"E. c #FEF4AA",
"W. c #FFF8A9",
"Q. c #F9EFB0",
"!. c #FFF6B6",
"~. c #FFF9B7",
"^. c #FBF4BD",
"/. c #FFFAC1",
"(. c #F7F1CF",
"). c #FFF9CA",
"_. c #F8F3C7",
"`. c #FFFCD6",
"'. c None",
/* pixels */
"'.'.'.'.'.'.'.'.R N i g g h N E '.'.'.'.'.'.'.'.",
"'.'.'.'.'.'.B s z 6.B.P.I.B.6.z f C '.'.'.'.'.'.",
"'.'.'.'.'.u c P.(.`.`.`.`.`.`.(.P.#.g '.'.'.'.'.",
"'.'.'.'.a m._.`.).).).).).).).).)._.m.d '.'.'.'.",
"'.'.'.a V.^.N.S.^.^./.).^.)././.~././.N.d '.'.'.",
"'.'.u 6.Q.Q.7 @ q 6.1.e e c M.U.~.~.!.~.0.m '.'.",
"'.Y x Y.E.E.$.      ; w w w = ; w.T.W.W.T.+.D '.",
"'.s y.K.R.R.2.      o o o @ o   o #.K.R.W.C.f '.",
"E k H.J.J.y.%                     X 5.L.K.H.J W ",
"j *.F.F.k.8   . .   O .   .   . .   - 7.9.R.&.V ",
"j r.n.@.# . O M M : D v 3 5 4 5 r > X - 6 A.e.L ",
"u t.b.0     , ! T r V D M v t W D +   % x H.C.J ",
"i r.z.0     4 M T p V T M b t T T &   K c.J.C.@.",
"j U f.r.9 #   * p * V v 3 5 4 5 t , $ u.x.J.e.=.",
"B G f.f.d.k     .   X .   . . . .   2 f.z.K.3.8.",
"E a p.a.a.i.1                     + / s.b.Y.$.j.",
"'.u ~ a.o.o.~ o                   # [ d.G.Z.2.'.",
"'.R s { O.X.I X     X X . + $     + / l.Y.,.Z.'.",
"'.'.b Z  ...L     X n ^ I _ n     . :.L.m.4.'.'.",
"'.'.'.y F | ` L Z A ] | | | ' A P -.D.N.<.'.'.'.",
"'.'.'.'.f S ) ......| } }  .X.s.b.K.q.<.'.'.'.'.",
"'.'.'.'.'.b y Q { o.s.s.f.x.b.F.V.,.4.'.'.'.'.'.",
"'.'.'.'.'.'.T v y H :.u.u.9.&.#.%.Z.'.'.'.'.'.'.",
"'.'.'.'.'.'.'.'.( F L G @.@.8.A.'.'.'.'.'.'.'.'."
};
