/* XPM */
static char *bitcoin48[] = {
/* columns rows colors chars-per-pixel */
"48 48 224 2 ",
"   c #000000",
".  c #0B0904",
"X  c #0A0802",
"o  c #100F08",
"O  c #161202",
"+  c #1B1401",
"@  c #14140C",
"#  c #19180B",
"$  c #1A1A13",
"%  c #221A02",
"&  c #211F0E",
"*  c #2D2302",
"=  c #2B250C",
"-  c #2D2809",
";  c #332C0A",
":  c #3A2D03",
">  c #3D3304",
",  c #3B330B",
"<  c #2C2A1B",
"1  c #292616",
"2  c #302E1B",
"3  c #332E12",
"4  c #35321C",
"5  c #2D2C22",
"6  c #302E23",
"7  c #343223",
"8  c #3B3928",
"9  c #463B05",
"0  c #4C3C03",
"q  c #433706",
"w  c #523F02",
"e  c #4D4305",
"r  c #5A4A05",
"t  c #574605",
"y  c #5E5207",
"u  c #494314",
"i  c #48431C",
"p  c #5C5415",
"a  c #5D551A",
"s  c #654D02",
"d  c #695706",
"f  c #745B04",
"g  c #635915",
"h  c #796608",
"j  c #776B17",
"k  c #6A6117",
"l  c #4B4728",
"z  c #524D25",
"x  c #5B5629",
"c  c #484637",
"v  c #514E32",
"b  c #58553C",
"n  c #605A25",
"m  c #635D3C",
"M  c #6C6325",
"N  c #6C663B",
"B  c #787138",
"V  c #776E28",
"C  c #595642",
"Z  c #585645",
"A  c #625F47",
"S  c #6B684C",
"D  c #78734B",
"F  c #6D6A58",
"G  c #7D7957",
"H  c #726E4F",
"J  c #747161",
"K  c #7D7B70",
"L  c #8A6B04",
"P  c #8C7407",
"I  c #967A08",
"U  c #8C7C13",
"Y  c #A47C04",
"T  c #8B7E30",
"R  c #827B54",
"E  c #9C8309",
"W  c #988A19",
"Q  c #A38608",
"!  c #A48B09",
"~  c #A98806",
"^  c #BB9D0A",
"/  c #B69408",
"(  c #A79417",
")  c #B49006",
"_  c #BDA50C",
"`  c #BEA80C",
"'  c #988C28",
"]  c #8C8232",
"[  c #A59627",
"{  c #A2943F",
"}  c #B4A62D",
"|  c #C59606",
" . c #C3A20A",
".. c #C3AB0C",
"X. c #CCAC0B",
"o. c #CAA20B",
"O. c #CAB30E",
"+. c #D4BD17",
"@. c #CEB212",
"#. c #E4AD08",
"$. c #EAB90A",
"%. c #F3BB09",
"&. c #F0B609",
"*. c #D2BB25",
"=. c #C7B42E",
"-. c #ECCD0E",
";. c #E7C70E",
":. c #FEC30A",
">. c #FECC0B",
",. c #F5C70C",
"<. c #EFD20F",
"1. c #F4D50E",
"2. c #FED40D",
"3. c #FADA0F",
"4. c #E6CC16",
"5. c #F6DB12",
"6. c #FBDF10",
"7. c #F3D813",
"8. c #EBD110",
"9. c #FFE30F",
"0. c #FEE311",
"q. c #FFE913",
"w. c #FEE51D",
"e. c #FFEA18",
"r. c #D8C638",
"t. c #E2CA21",
"y. c #EED732",
"u. c #FEE523",
"i. c #FEE52B",
"p. c #FFEA29",
"a. c #FFE924",
"s. c #FEE632",
"d. c #FEE53A",
"f. c #FEE93C",
"g. c #FCE739",
"h. c #8B865B",
"j. c #968D4B",
"k. c #A89A49",
"l. c #AEA34D",
"z. c #BCB04C",
"x. c #9A9571",
"c. c #908C6A",
"v. c #A69D69",
"b. c #A19C72",
"n. c #A9A269",
"m. c #ACA674",
"M. c #B3AC7D",
"N. c #BBB477",
"B. c #BBB26C",
"V. c #C5BD75",
"C. c #CDBF49",
"Z. c #DCC748",
"A. c #D5C759",
"S. c #CFC042",
"D. c #F9DC48",
"F. c #E9D959",
"G. c #ECD941",
"H. c #FEE943",
"J. c #FDE54C",
"K. c #FEEA4B",
"L. c #F9E346",
"P. c #FEEB53",
"I. c #FEEC5B",
"U. c #FAE558",
"Y. c #FFF05B",
"T. c #D4C871",
"R. c #E7DB7B",
"E. c #FEEC63",
"W. c #FEED6B",
"Q. c #F8E669",
"!. c #FFF168",
"~. c #FEED72",
"^. c #FEED7B",
"/. c #F3E57B",
"(. c #FFF276",
"). c #FEF17D",
"_. c #9D9A8C",
"`. c #A9A581",
"'. c #B4AF9A",
"]. c #B7B29A",
"[. c #B8B386",
"{. c #BEBAA8",
"}. c #C3BD89",
"|. c #D7CA87",
" X c #DDD388",
".X c #CCC695",
"XX c #D4CE9C",
"oX c #D7CE95",
"OX c #DAD398",
"+X c #CBC380",
"@X c #E2D990",
"#X c #EEE389",
"$X c #FDED8C",
"%X c #FAE984",
"&X c #FEF284",
"*X c #FFF38C",
"=X c #FCED98",
"-X c #FFF294",
";X c #FFF49C",
":X c #DAD3A6",
">X c #D0CCA2",
",X c #E3DCAB",
"<X c #E2DAB8",
"1X c #F9EEA7",
"2X c #FFF4A3",
"3X c #FFF9A5",
"4X c #FFF5AB",
"5X c #FFF8AB",
"6X c #EAE5B3",
"7X c #FEF5B4",
"8X c #FFF9B3",
"9X c #FEF6BB",
"0X c #FFFABC",
"qX c #F7F1BA",
"wX c #ECE5AC",
"eX c #FFF6C4",
"rX c #FFF8C4",
"tX c #FEF6CB",
"yX c #FFF9CC",
"uX c #FFF9D3",
"iX c #FFFCDC",
"pX c #FDF6D5",
"aX c #E7E1C6",
"sX c None",
/* pixels */
"sXsXsXsXsXsXsXsXsXsXsXsXsXsXsXsXsXsXsX>.:.:.$.&.&.$.:.>.>.sXsXsXsXsXsXsXsXsXsXsXsXsXsXsXsXsXsXsX",
"sXsXsXsXsXsXsXsXsXsXsXsXsXsXsXsX:.#./ L s 0 q , , q 0 g P / $.>.sXsXsXsXsXsXsXsXsXsXsXsXsXsXsXsX",
"sXsXsXsXsXsXsXsXsXsXsXsXsX:.&.) s ; 7 Z K _.'.{.{.'._.K Z 7 ; s / ,.2.sXsXsXsXsXsXsXsXsXsXsXsXsX",
"sXsXsXsXsXsXsXsXsXsXsXsX&.Y q 6 J ].aXpXiXiXiXiXiXiXiXiXpXaX'.J < 9 Q ;.sXsXsXsXsXsXsXsXsXsXsXsX",
"sXsXsXsXsXsXsXsXsXsX%.| 9 5 c.<XpXpXuXuXpXuXuXuXuXuXuXuXiXuXiXuX<Xc.5 u | 1.sXsXsXsXsXsXsXsXsXsX",
"sXsXsXsXsXsXsXsXsX&.L = J <XpXuXpXpXuXuXuXuXuXyXuXuXuXuXuXpXuXuXuXuX<XJ = P ,.sXsXsXsXsXsXsXsXsX",
"sXsXsXsXsXsXsXsX#.s 6 '.pXtXyXtXtXtXtXyXyXyXyXyXyXyXyXyXyXyXyXyXyXyXyXyX].7 y ;.sXsXsXsXsXsXsXsX",
"sXsXsXsXsXsXsX#.w c :XtXtXtXrXyXtXeXyXrXrXyXrXyXrXyXrXyXrXrXyXrXyXrXrXyXyX:Xc 0 $.sXsXsXsXsXsXsX",
"sXsXsXsXsXsX&.w Z ,XeXeXeXeXeXrXrXrXrXrXrXrXrXrXrXrXrX0XrXrXrX0XrXrXrXrX9XrX6XC e ;.sXsXsXsXsXsX",
"sXsXsXsXsX%.s c ,XqX9XqXc.F m.:X9X0X9X0X9X0X0X0X0X0XrX0X9X0X9X9X9X0X9X9X9X0X9XwXc s 1.sXsXsXsXsX",
"sXsXsXsX%.L 6 XXqX7XqX7XA   . 1 S .X8X0XwX:X.X[.[.[.XXwX8X0X9X9X7X7X9X7X9X8X7X9XOX7 P 9.sXsXsXsX",
"sXsXsXsX| & M.7X7X7X7X7Xb.        o Z D 8 $ . X   . @ 5 C x.OX8X8X8X7X7X7X7X7X7X8XM.= O.sXsXsXsX",
"sXsXsX%.w S 1X4X1X4X4X5XoX$             . 8 S h.c.h.S 8 .   < G @X8X4X4X4X4X7X4X4X4XS e <.sXsXsX",
"sXsX:.Y 2 |.1X2X2X1X2X4X=Xc             1 m.x.G D R x.N.G       5 m.4X4X4X2X4X4X4X5XOX2 / 0.sXsX",
"sXsX%.0 R 1X1X2X2X2X2X2X2XH               o           @ $         o h.=X2X2X2X2X2X2X3XR e 1.sXsX",
"sXsX/ 3 |.=X=X=X;X;X=X;X+X<                                         . h.;X;X;X;X2X2X3X X3 ` sXsX",
"sX%.L m $X=X=X-X-X-X-X@X8                                             o n.-X-X;X;X2X2X;XN h 0.sX",
"sX#.: n.=X$X-X*X-X-X*XH                                                 1 R.-X*X-X;X2X3Xn., 8.sX",
"sX| 3 T.$X$X$X*X*X*XT.@                                                   D *X%X#X-X;X3X X2 O.sX",
":.Y l /.%X%X&X^.R.T.N                     X X                             < V.v 7 B.=X2X;Xl W q.",
":.f N ^.^.%X/.N 1 # .       r Q Q h X + P o.~ > X h Q * + I I + * Y P O   . v l 4 v |.;X3XS k a.",
":.r R ^.^.^.T.#           O X.e.q...X P 0.5.0...% ^ q.9 * -.-.* I e.U X     2 l < 4 B.3X3Xh.p g.",
"%.0 k.Q.~.~.A.@           t 7...3._ + X.5.d X.5.0 ^ 6.9 % -.;.f 1.+.%       @ . X x  X;X3Xn.i g.",
"%.0 l.Q.~.(.A.@         . ) 4.L 1._ % @.1.> ^ 6.t ^ 6.0 * -.8.X.q.j           1 j.Q.*X;X3Xm.i L.",
"%.0 k.Q.Q.W.A.@         : -.1.P 1.` % @.<.> ^ 0.t ^ 0.> * -.;.Q 9.! X       i F.W.(.&X;X5Xm.i F.",
"%.0 k.E.U.E.A.@         : h h d 3. .+ ..5.d X.7.0 ^ 0.9 * -.;.t ;.<.>       B !.E.W.&X;X5Xn.l U.",
":.y T E.U.I.F.z . .           9 6.` X L q.1.9.@.% | 0.e * 8.8.* ! q.! X     k.Y.I.W.&X2X5Xh.x W.",
">.f n U.U.P.I.D.A.} z         * E h   O P ..( ; X h E - O E P O > E P +   = Z.Y.I.W.&X3X8XS D (.",
">.Y q D.U.P.P.P.P.Y.z.O                   X                               M P.P.P.W.*X3X4Xc k.&X",
"sXo.2 Z.J.J.J.K.K.K.L.n                                                 # S.P.K.I.~.-X5X:X7 T.sX",
"sX$.q [ L.L.J.K.K.K.K.r.=                                             X ' K.K.K.P.).;X8Xm.8 #XsX",
"sX2.h g D.L.H.H.H.H.K.K.} #                                           3 G.H.K.K.E.&X2XqXZ D ;XsX",
"sXsX .1 =.J.L.f.H.H.f.f.H.' .                                         = y.H.K.P.!.-X8XXX5 [.sXsX",
"sXsX,.t j d.s.d.d.d.f.f.f.} .                                         @ r.f.K.Y.&X3XrXG v 1XsXsX",
"sXsX2./ = *.s.s.s.s.g.g.s.'                                           . } K.P.W.-X8X>X5 N.8XsXsX",
"sXsXsX,.s g y.s.s.s.s.s.s.V             X .         . O 3 O             [ K.E.&X3XqXS Z qXsXsXsX",
"sXsXsX2.@.= ( s.i.i.i.i.s.a             g } [ W W ' } *.y.u             ] Y.^.;X0X`.5 XX8XsXsXsX",
"sXsXsXsX2.I - *.i.i.i.i.i.u             W p.p.p.p.p.a.i.u.k             V (.;X0X>X5 x.0XsXsXsXsX",
"sXsXsXsXsX1.d , 4.i.u.u.i.[ p p p p p j t.a.i.u.u.u.u.u.a.*.k p p a a x B.-X8X,Xc F qXsXsXsXsXsX",
"sXsXsXsXsXsX,.r 9 t.u.w.u.p.p.p.i.i.u.a.a.e.w.u.u.u.w.u.w.i.u.i.f.K.E.(.-X8X:XC Z 6XsXsXsXsXsXsX",
"sXsXsXsXsXsXsX;.t q +.e.w.u.i.i.p.p.a.a.a.w.w.w.w.w.w.u.a.p.s.H.P.W.&X;X9X>Xc Z 6XsXsXsXsXsXsXsX",
"sXsXsXsXsXsXsXsX-.d * ( 5.u.i.s.g.p.i.i.i.u.u.u.w.i.i.s.f.L.P.!.(.-X4XqX`.5 S 6XsXsXsXsXsXsXsXsX",
"sXsXsXsXsXsXsXsXsX7.E * d +.e.p.g.f.H.H.g.g.H.H.H.K.P.P.E.~.&X*X2X5XXXS 5 x.qXsXsXsXsXsXsXsXsXsX",
"sXsXsXsXsXsXsXsXsXsX6.@.y - h +.p.f.H.K.P.I.I.E.E.W.W.).&X*X;X3XoXG < C .X0XsXsXsXsXsXsXsXsXsXsX",
"sXsXsXsXsXsXsXsXsXsXsX9.1._ e * y ( r.H.P.Y.!.!.(.).&X*X#X Xn.b < c [.1X0XsXsXsXsXsXsXsXsXsXsXsX",
"sXsXsXsXsXsXsXsXsXsXsXsXsX9.5.` h > ; u k ] k.l.l.k.j.N l 5 8 D V.1X8XsXsXsXsXsXsXsXsXsXsXsXsXsX",
"sXsXsXsXsXsXsXsXsXsXsXsXsXsXsXq.q.<.O.W j p u u i l z B k.T.#X;X3XsXsXsXsXsXsXsXsXsXsXsXsXsXsXsX",
"sXsXsXsXsXsXsXsXsXsXsXsXsXsXsXsXsXsXq.e.a.g.g.L.F.U.W.(.).*XsXsXsXsXsXsXsXsXsXsXsXsXsXsXsXsXsXsX"
};
