/* XPM */
static char *bitcoin16[] = {
/* columns rows colors chars-per-pixel */
"16 16 186 2 ",
"   c #000000",
".  c #000001",
"X  c #020201",
"o  c #050501",
"O  c #060602",
"+  c #090802",
"@  c #090906",
"#  c #131001",
"$  c #111004",
"%  c #121104",
"&  c #171505",
"*  c #171506",
"=  c #11110C",
"-  c #1B1908",
";  c #211B01",
":  c #231E02",
">  c #241F02",
",  c #251F02",
"<  c #261F02",
"1  c #272002",
"2  c #282202",
"3  c #2B2708",
"4  c #362D03",
"5  c #382F03",
"6  c #363005",
"7  c #38330A",
"8  c #222116",
"9  c #322F14",
"0  c #3B3715",
"q  c #32301F",
"w  c #323022",
"e  c #403E2C",
"r  c #413F2C",
"t  c #534605",
"y  c #544907",
"u  c #5A4E04",
"i  c #5D540F",
"p  c #514B16",
"a  c #6C5C07",
"s  c #4D492B",
"d  c #585329",
"f  c #484630",
"g  c #5C5734",
"h  c #625C31",
"j  c #6B642A",
"k  c #7E7529",
"l  c #646142",
"z  c #6A674E",
"x  c #79755A",
"c  c #877408",
"v  c #867B20",
"b  c #897E2D",
"n  c #968109",
"m  c #978209",
"M  c #9E8709",
"N  c #9D870A",
"B  c #9E8809",
"V  c #8E821B",
"C  c #A68E0C",
"Z  c #AA8B0D",
"A  c #A4920E",
"S  c #AE960B",
"D  c #AC910C",
"F  c #AC990C",
"G  c #B59C0B",
"H  c #B79D0B",
"J  c #B59D0C",
"K  c #BA9F0C",
"L  c #A78214",
"P  c #A48217",
"I  c #A28617",
"U  c #A88310",
"Y  c #A88211",
"T  c #A78D16",
"R  c #A2811D",
"E  c #A48818",
"W  c #A38C18",
"Q  c #A28D1F",
"!  c #A89314",
"~  c #A89615",
"^  c #A4951C",
"/  c #BFA50D",
"(  c #B7A214",
")  c #B7A11B",
"_  c #B5A41D",
"`  c #A18420",
"'  c #A58A22",
"]  c #A58A26",
"[  c #A08737",
"{  c #A08A37",
"}  c #A29630",
"|  c #A59935",
" . c #CAB720",
".. c #C8B522",
"X. c #D1BE21",
"o. c #C7B031",
"O. c #D6C53B",
"+. c #EBD421",
"@. c #F5DE27",
"#. c #F0D92A",
"$. c #E6D33D",
"%. c #F3DB33",
"&. c #FFE825",
"*. c #FFE926",
"=. c #FEE62A",
"-. c #FDE731",
";. c #FFEC38",
":. c #9B945A",
">. c #A38D41",
",. c #A39743",
"<. c #A4904B",
"1. c #A4914B",
"2. c #A59B48",
"3. c #A69C4A",
"4. c #A49154",
"5. c #A39555",
"6. c #A49C58",
"7. c #A59D58",
"8. c #A29B5F",
"9. c #A49F77",
"0. c #ACA56A",
"q. c #AAA46C",
"w. c #A5A073",
"e. c #A8A37B",
"r. c #A9A47B",
"t. c #BAAA70",
"y. c #B9AF71",
"u. c #B7AA78",
"i. c #B4AE7F",
"p. c #B9B07B",
"a. c #C8B76B",
"s. c #C8BF75",
"d. c #D7C642",
"f. c #E6CF4A",
"g. c #EEDC4E",
"h. c #F0DD41",
"j. c #F2DF4D",
"k. c #F1DC5E",
"l. c #FFED45",
"z. c #F2E04E",
"x. c #F2E15C",
"c. c #CFC46F",
"v. c #D0C66E",
"b. c #CBC37A",
"n. c #E7D860",
"m. c #E6D86C",
"M. c #F0DD6D",
"N. c #E6D577",
"B. c #E4D878",
"V. c #FFF063",
"C. c #FFF36E",
"Z. c #A7A381",
"A. c #ADA982",
"S. c #AFAA82",
"D. c #B7B186",
"F. c #BAB484",
"G. c #C1B980",
"H. c #C1BB8C",
"J. c #C7C085",
"K. c #D7CF87",
"L. c #DED585",
"P. c #DFD688",
"I. c #CAC19B",
"U. c #CAC29B",
"Y. c #E5DC8D",
"T. c #F6EA89",
"R. c #F3E990",
"E. c #FFF89A",
"W. c #EFE8AD",
"Q. c #F4E9A2",
"!. c #F4ECA5",
"~. c #FFFAA1",
"^. c #FFF5A8",
"/. c #FFF7AA",
"(. c #ECE5BA",
"). c #F2EAB1",
"_. c #FDF6B9",
"`. c #FFFABA",
"'. c #E9E3C2",
"]. c #F6EFC2",
"[. c #F5EFCE",
"{. c #FFFCCA",
"}. c #FFFDCA",
"|. c #FFFCCB",
" X c #FFFDCB",
".X c None",
/* pixels */
".X.X.X.X.XP { <.<.{ E .X.X.X.X.X",
".X.X.XL 4.I.'.[.[.'.I.5.T .X.X.X",
".X.XR u.(.|.{.{.{.{.|.].p.' .X.X",
".XY t.).z x D.r.e.H.W.`._.y.! .X",
".X>.Q.^.l   = r f w w s./.!.,..X",
"Y a.E.L.q       X o o 8 b.~.b.~ ",
"` N.c.g # 4 , 5 > > : - s :.K.} ",
"] M.d   a / n G N c / y @ h L.2.",
"' M.h @ t B n H N c H u 9 n.R.7.",
"I f.j.V o : : 5 > > 2 , k V.Y.8.",
"Z o.l.h.p       X     - O.C.J.q.",
".XT %.;.v   o $ = &   * d.T.9..X",
".XD ) =.V 3 i  .X._ 7 0 v.F.A..X",
".X.XC ( +.#.@.*.*.=.z.B.D.e..X.X",
".X.X.XS A ..$.z.x.m.s.9.S..X.X.X",
".X.X.X.X.XF ^ | 2.7.0..X.X.X.X.X"
};
