/* XPM */
static char *bitcoin64[] = {
/* columns rows colors chars-per-pixel */
"64 64 231 2 ",
"   c #000000",
".  c #090601",
"X  c #0C0A03",
"o  c #0D0D0A",
"O  c #110D01",
"+  c #100F08",
"@  c #141103",
"#  c #1A1502",
"$  c #13120C",
"%  c #1B1A0B",
"&  c #18160B",
"*  c #161511",
"=  c #1B1A13",
"-  c #181711",
";  c #241C02",
":  c #201F16",
">  c #2B2403",
",  c #2A2609",
"<  c #372B02",
"1  c #3B3103",
"2  c #3D380F",
"3  c #2C2B1D",
"4  c #252417",
"5  c #373319",
"6  c #2B2A23",
"7  c #232322",
"8  c #393728",
"9  c #3A3932",
"0  c #322F21",
"q  c #4B3C03",
"w  c #453603",
"e  c #433E18",
"r  c #523E04",
"t  c #423E25",
"y  c #4D4408",
"u  c #5B4C05",
"i  c #544706",
"p  c #49441B",
"a  c #554E1C",
"s  c #644C03",
"d  c #684F04",
"f  c #6B5204",
"g  c #695A07",
"h  c #7A5F05",
"j  c #735904",
"k  c #665B16",
"l  c #796407",
"z  c #766C1B",
"x  c #796E19",
"c  c #716617",
"v  c #494626",
"b  c #4B4937",
"n  c #514E35",
"m  c #57543A",
"M  c #575126",
"N  c #655D2A",
"B  c #766E26",
"V  c #726B35",
"C  c #5A5745",
"Z  c #615D4D",
"A  c #6A6649",
"S  c #716D4A",
"D  c #77724C",
"F  c #6B6957",
"G  c #7A755C",
"H  c #767255",
"J  c #876B07",
"K  c #8A770A",
"L  c #937305",
"P  c #987B07",
"I  c #8A7C1C",
"U  c #91740B",
"Y  c #847723",
"T  c #A17A06",
"R  c #827D58",
"E  c #827E66",
"W  c #A88708",
"Q  c #B48B07",
"!  c #B4940A",
"~  c #B19A0C",
"^  c #BB9809",
"/  c #A8961B",
"(  c #AC9611",
")  c #BCA30C",
"_  c #998C2B",
"`  c #968A35",
"'  c #958B34",
"]  c #A89A28",
"[  c #A29637",
"{  c #BCAC27",
"}  c #B5A83E",
"|  c #8F831F",
" . c #C29A09",
".. c #C5A20B",
"X. c #CCAB0C",
"o. c #C6A80C",
"O. c #D8AA09",
"+. c #CBB10D",
"@. c #D8B60B",
"#. c #EAB70A",
"$. c #F4B909",
"%. c #F8BC09",
"&. c #E0AB08",
"*. c #CCB830",
"=. c #D8C118",
"-. c #E7C50D",
";. c #FFC309",
":. c #FECB0B",
">. c #F4C90D",
",. c #F4D40E",
"<. c #FED40D",
"1. c #FDDC0F",
"2. c #F7DA0F",
"3. c #EBD31B",
"4. c #F4D713",
"5. c #E6CC14",
"6. c #FFE10F",
"7. c #FEE311",
"8. c #FFE911",
"9. c #FEE51D",
"0. c #FFE91A",
"q. c #D8C429",
"w. c #D9C738",
"e. c #EBD429",
"r. c #EDD32F",
"t. c #FEE524",
"y. c #FFE825",
"u. c #FEE52B",
"i. c #FFE92B",
"p. c #FEE633",
"a. c #FFE935",
"s. c #FEE43B",
"d. c #FEE93C",
"f. c #F6E23C",
"g. c #8B8458",
"h. c #968F52",
"j. c #989156",
"k. c #948A49",
"l. c #A5994F",
"z. c #ACA147",
"x. c #B4A756",
"c. c #898567",
"v. c #938C66",
"b. c #979263",
"n. c #8C8873",
"m. c #A19D78",
"M. c #A29B65",
"N. c #ACA462",
"B. c #A9A37A",
"V. c #BBB476",
"C. c #B7B077",
"Z. c #C9B852",
"A. c #C5BC6E",
"S. c #DBC959",
"D. c #F5DB48",
"F. c #E8D74C",
"G. c #FDE542",
"H. c #FEEA44",
"J. c #FEE44B",
"K. c #FEEA4B",
"L. c #F5E143",
"P. c #FEEB53",
"I. c #FEEC5B",
"U. c #FDE557",
"Y. c #FFF05A",
"T. c #D7CA6B",
"R. c #E9DD79",
"E. c #EADC67",
"W. c #FEEC63",
"Q. c #FEED6B",
"!. c #FCE767",
"~. c #FFF167",
"^. c #FEED73",
"/. c #FEEC7B",
"(. c #F7E973",
"). c #FFF17C",
"_. c #FFF274",
"`. c #9C9884",
"'. c #A39E87",
"]. c #B9B281",
"[. c #B1AD91",
"{. c #C4BE8B",
"}. c #C2BC98",
"|. c #C9C284",
" X c #D4CC8D",
".X c #D8CC82",
"XX c #DBD28A",
"oX c #D5CE96",
"OX c #DBD396",
"+X c #C7C294",
"@X c #E5DB96",
"#X c #EDE288",
"$X c #FDEC83",
"%X c #FEED8B",
"&X c #F3E387",
"*X c #FEF184",
"=X c #FFF28C",
"-X c #EBE296",
";X c #FEED93",
":X c #F9ED99",
">X c #FFF393",
",X c #FFF39B",
"<X c #DBD5A6",
"1X c #D2CDB6",
"2X c #E3DBA3",
"3X c #E4DCB4",
"4X c #E9E2AB",
"5X c #FCEFA3",
"6X c #F7EDAB",
"7X c #FFF4A3",
"8X c #FFF8A4",
"9X c #FFF5AB",
"0X c #FFF8AD",
"qX c #EAE4BA",
"wX c #F4ECB8",
"eX c #FFF5B3",
"rX c #FFF9B4",
"tX c #FEF6BC",
"yX c #FFF9BC",
"uX c #E5DEC3",
"iX c #E8E2C9",
"pX c #FFF6C3",
"aX c #FFF8C3",
"sX c #FFF6CA",
"dX c #FFF9CB",
"fX c #FFF7D1",
"gX c #FFF9D3",
"hX c #FFFBDC",
"jX c #FBF5D8",
"kX c #F0E9C7",
"lX c None",
/* pixels */
"lXlXlXlXlXlXlXlXlXlXlXlXlXlXlXlXlXlXlXlXlXlXlXlXlXlX;.:.;.:.;.;.:.:.:.:.:.:.lXlXlXlXlXlXlXlXlXlXlXlXlXlXlXlXlXlXlXlXlXlXlXlXlXlX",
"lXlXlXlXlXlXlXlXlXlXlXlXlXlXlXlXlXlXlXlXlXlX;.;.;.$.&. .W U J l l J L W  .&.>.<.<.:.lXlXlXlXlXlXlXlXlXlXlXlXlXlXlXlXlXlXlXlXlXlX",
"lXlXlXlXlXlXlXlXlXlXlXlXlXlXlXlXlXlXlXlX;.;.O.W g < # O o = 7 6 6 7 = $ O & 1 j Q @.>.<.lXlXlXlXlXlXlXlXlXlXlXlXlXlXlXlXlXlXlXlX",
"lXlXlXlXlXlXlXlXlXlXlXlXlXlXlXlXlX;.;.$.Q s ; X 7 C E [.1X1XiXiXiXuX1X1X[.E C 7 o # s ! >.<.<.lXlXlXlXlXlXlXlXlXlXlXlXlXlXlXlXlX",
"lXlXlXlXlXlXlXlXlXlXlXlXlXlXlXlX%.$.T < o 7 F [.uXhXhXhXhXhXhXhXhXhXhXhXhXhXjXuX[.G 7 o < W -.<.lXlXlXlXlXlXlXlXlXlXlXlXlXlXlXlX",
"lXlXlXlXlXlXlXlXlXlXlXlXlXlX;.%.W < X 9 `.uXhXhXjXhXjXgXjXhXgXgXgXhXgXhXjXjXjXhXhXhXuX`.9 . 1 ! :.<.lXlXlXlXlXlXlXlXlXlXlXlXlXlX",
"lXlXlXlXlXlXlXlXlXlXlXlXlX%.O.s . 9 '.kXhXgXfXgXjXgXjXfXgXgXgXgXgXgXgXgXgXgXhXgXgXgXgXgXkX'.8 . s @.<.lXlXlXlXlXlXlXlXlXlXlXlXlX",
"lXlXlXlXlXlXlXlXlXlXlX%.;.Q ; * E qXfXfXfXfXfXfXgXfXfXfXfXfXgXgXgXfXdXgXfXfXfXfXdXgXgXfXfXgXiXE * > ~ <.<.lXlXlXlXlXlXlXlXlXlXlX",
"lXlXlXlXlXlXlXlXlXlX%.%.L O 9 }.sXsXsXsXsXfXdXsXdXdXdXdXdXdXdXdXdXdXdXdXdXdXdXdXdXdXdXdXsXsXfXdX}.9 O K ,.<.lXlXlXlXlXlXlXlXlXlX",
"lXlXlXlXlXlXlXlXlX;.$.j X Z 3XsXsXsXsXsXsXsXsXsXdXdXdXdXdXdXdXdXdXdXdXdXdXsXdXdXdXdXdXdXsXsXdXsXdXqXC o l ,.<.lXlXlXlXlXlXlXlXlX",
"lXlXlXlXlXlXlXlX;.$.f X G wXsXpXaXaXaXaXaXaXaXaXaXsXaXaXaXaXaXaXaXaXaXaXaXaXaXaXaXaXaXaXaXaXaXaXaXdXwXG X j ,.1.lXlXlXlXlXlXlXlX",
"lXlXlXlXlXlXlX%.%.h X E wXsXwXpXaXaXaXaXaXaXaXaXaXaXaXaXaXaXaXaXaXaXaXaXaXaXaXaXaXaXaXaXaXaXaXaXaXaXaXwXc.o l ,.1.lXlXlXlXlXlXlX",
"lXlXlXlXlXlXlX;.L O R wXpXwXpXtX'.H '.<XtXaXyXtXtXtXyXtXyXyXtXtXyXyXtXaXtXyXtXyXaXtXtXyXtXtXtXyXtXtXtXaXwXG X P 1.lXlXlXlXlXlXlX",
"lXlXlXlXlXlX;.Q O C qXwXwXtXtXtXA   . : C m.4XyXyXtXyXyXyXyXyXtXtXyXyXyXyXyXtXyXtXtXtXyXyXtXtXyXyXeXtXtXrXwXC # ) 1.lXlXlXlXlXlX",
"lXlXlXlXlX%.&.> 0 2XtXeXeXeXeXeXb.          6 c.@XeX4X+XB.E S C C A H v.].<X6XyXeXeXeXeXeXeXeXeXeXeXeXeXeXrX<X8 < -.1.lXlXlXlXlX",
"lXlXlXlXlX%.f o {.6X6X9XeXeXeXeXoX-             3 Z 0 $                   = b v.OXeXrXeXeXeXrXeXeX0XeXeXrX0XrX].+ g 1.lXlXlXlXlX",
"lXlXlXlX;.Q O H 6XeX9X9X9XeX9X9X6Xt                     $ 0 m A D S m 9 -       = A  XeX0X0X0X0XeX0X0X0X9X9X9X9XH O ) 2.lXlXlXlX",
"lXlXlX;.$.w 3 @X5X6X6X5X5X9X7X9XeXR                   3 |.-X@XOXoXOX@X-XoXb.4       - g.-X9X9X9X9X9X9X9X9X9X9X0X@X6 q ,.6.lXlXlX",
"lXlXlX;.T O v.5X5X5X7X5X7X7X7X7X9XV.o                 = H b 4 - $ $ 4 8 D B.8           b |.8X9X7X7X7X9X9X9X9X7X8Xb.X ~ 6.lXlXlX",
"lXlXlX%.r 0 @X:X,X7X5X7X7X7X7X7X8XXX4                                     .               3 V.8X7X7X7X7X7X7X7X9X8X@X0 y 2.lXlXlX",
"lXlX%. .O R :X:X,X,X,X,X,X,X,X,X:XS .                                                       4 V.,X,X,X,X8X7X7X7X8X8Xg.O o.6.lXlX",
"lXlX%.j = .X:X;X,X;X,X;X,X,X,X>Xg..                                                           3 .X,X,X,X,X,X,X7X8X,XXX: l 7.lXlX",
"lX;.#.; m ;X;X;X>X>X>X>X>X>X,XC.*                                                               n #X>X>X>X>X,X7X8X8X:Xm < 5.7.lX",
"lX;.^ O l.;X%X;X;X=X>X=X>X=X#Xt                                                                 . j.>X>X>X>X,X,X,X8X8XN.+ ) 8.lX",
"lX;.J - A.;X%X%X%X=X=X%X%X=Xj.                                                                    3 R.=X=X>X>X,X7X7X8X.X- K 0.lX",
"lX;.q t /.&X$X%X$X$X=X=X=X#X8                                                                     . h.=XN.V M.:X,X,X8X:Xt y 7.lX",
"%.#.; V $X$X$X$X*X$XT.N.h.V X         X @ O O X       @ < > X     . O O .   . @ O .     O @ O       v N.$ o o N.@X7X7X8XA , e.0.",
";.O.@ k.$X/././.).j.$               . L X.X.X.U .   r ..-.-.Q >   i X.X.q   d X.X.i   w  .O.J .     = n 5 h.. N A.-X7X8Xj.@ q.9.",
";.^ O x././././.(.v                 < -.7.7.8.~   ; @.7.7.7.7.~ . f 7.7.u   l 6.7.g X ! 8.3.w       X t t D   n M.:X8X8XC.+ { a.",
";.W ; A.(.(.(.^.(.v                 J 1.e.4.7.~   j 1.7./ ~ 7.,.1 d 1.7.u   l 1.7.g s ,.0.|           8 $ +   5 V.,X7X0X|.$ ] a.",
";.P & Z.(.(./.^.(.v               ; X.9.U @.8.~ . J 6.4.< f 1.1.i f 7.1.u   h 1.6.J o.8.=.,                 e N.*X>X,X8XXX- [ H.",
":.L % S.!.!.!.^.!.v               d <.5.q @.8.~   L 6.4.< d 6.7.u f 1.1.u   l 6.1...,.0.K               4 V E._.*X>X8X0XXX: ' K.",
";.L ; S.!.!.!.!.!.v             X ^ 8.1.l @.8.~   U 7.,.< d 1.7.u d 1.7.i   l 6.7.P @.8...@           M S.Q.~._.*X>X7X7XOX= ' Y.",
":.T & Z.!.W.!.W.!.p             < X.=.@.j @.8.~ . J 6.,.1 f 1.7.i d 1.7.u   h 6.6.g P 8.1.u           ` ~.W.~.Q.*X,X7X0X X$ k.Y.",
":.W @ Z.I.U.W.W.U.v             X # # # > @.8.~   f 6.6.W ^ 6.4.1 f 7.1.u   h 6.6.g w ,.6.) X         z.~.W.W.Q.*X>X7X0X|.o z.~.",
":. .O z.!.U.U.I.P.l.4 o                 # @.8.~   ; +.6.8.0.0./ . f 6.7.u   l 6.6.g X ^ 8.2.u       % S.Y.W.Y.Q.*X>X7X0XC.X T.~.",
";.O.& ` U.U.U.U.P.I.S.x.z.B X           # Q +.K     w ) 5.5./ >   i X.+.q   s X.+.i   s X.+.K .     v U.I.I.W.Q.*X,X8X0Xv.$ T._.",
":.#.> N U.J.U.U.P.P.Y.K.P.U.t             X O X       O > ; .     . X X .   . X X .   . X O X     . [ P.P.P.I.Q.=X:X0XrXF 3 R._.",
"lX;.i 2 D.J.K.P.K.Y.K.K.P.P.[                                                                     5 F.P.P.P.I.^.=X:X0X6Xt n *XlX",
"lX:.J & Z.J.K.K.K.K.K.K.K.K.L.p                                                                 . [ K.K.K.P.W._.>X8XrXOX= g.=XlX",
"lX<...o _ J.G.J.K.H.K.K.H.K.H.Z.%                                                               M L.K.K.K.P.W.).,X8XyXm.+ V.=XlX",
"lX:.$., a D.G.G.H.G.J.H.H.H.H.H._ X                                                           , w.H.H.K.K.P.Q.*X:XrXwXC 0 -X>XlX",
"lXlX<.l & *.G.G.G.G.H.H.H.H.H.H.L.Y o                                                         e L.H.H.H.K.I._.>X8XrXoX* H ,XlXlX",
"lXlX:.o.O Y s.s.s.d.d.d.G.H.H.d.H.f.a                                                         , r.H.H.H.P.W.).:XrXyXc.$ |.8XlXlX",
"lXlXlX>.r , w.s.s.s.s.d.d.f.d.d.a.s.N                                                         & w.d.H.K.I.Q.=X7XrX4X6 n 8XlXlXlX",
"lXlXlX:.^ O I s.p.p.p.p.a.a.d.s.a.f.e                                                         o } d.H.K.W.).,X0XaXn.o ].0XlXlXlX",
"lXlXlX<.>.i ; *.p.p.p.p.p.a.p.a.a.r.,                                                           ] d.K.Y._.=X0XyX<X7 m 6XrXlXlXlX",
"lXlXlXlX<. .# c r.p.u.p.p.u.p.p.a.w.%                 . o               o , p .                 | H.P.~.*X:XrXyXF $ +XrXlXlXlXlX",
"lXlXlXlXlX<.l O ] u.u.u.u.u.p.u.a.*.X                 z { _ x x c z I ] *.e.w.%                 B P.W.).,X8XaX[.o G yXlXlXlXlXlX",
"lXlXlXlXlX<.-.2 > *.u.t.u.u.u.u.i.]                 . ] i.i.i.i.i.i.i.i.y.i.e.,                 v I._.>X0XaX<X6 9 4XyXlXlXlXlXlX",
"lXlXlXlXlXlX<...; y e.t.t.t.u.u.i.]                 % q.i.t.t.t.i.t.u.y.y.t.t.k                 v (.=X7XyXqXC = +XyXlXlXlXlXlXlX",
"lXlXlXlXlXlXlX1.W X g e.t.t.t.t.i.e.| c x z z z x c { t.t.t.t.t.t.t.t.t.t.t.y.q.I z x x B B B V T.=X9XyXkXZ o m.aXlXlXlXlXlXlXlX",
"lXlXlXlXlXlXlX<.<.K X c 3.t.t.t.t.y.i.i.i.i.i.i.y.y.y.t.9.t.t.t.t.t.t.t.t.9.t.t.i.i.a.p.H.P.~.).=X6XyXwXH o c.aXyXlXlXlXlXlXlXlX",
"lXlXlXlXlXlXlXlX<.,.J . g 3.9.9.t.y.u.u.t.t.t.t.t.t.9.t.9.9.9.9.9.9.9.9.t.t.t.t.i.p.d.K.P.Q.).>X7XyXqXF o E yXaXlXlXlXlXlXlXlXlX",
"lXlXlXlXlXlXlXlXlX<.4.U O y @.t.0.t.t.u.u.u.i.t.t.t.t.t.9.9.9.9.9.9.9.t.t.t.u.p.d.H.P.W./.=X,X0XyX<Xb o c.wXaXlXlXlXlXlXlXlXlXlX",
"lXlXlXlXlXlXlXlXlXlX<.4.W # , ( 4.0.9.u.p.a.a.a.u.i.u.u.u.t.t.t.t.t.u.i.i.d.H.K.P.Q._.*X>X7XeXtX[.3 * m.aXaXlXlXlXlXlXlXlXlXlXlX",
"lXlXlXlXlXlXlXlXlXlXlX1.1.o.1 X g 5.0.8.t.a.d.d.d.d.H.f.d.d.d.f.d.H.H.K.P.I.W.Q.).*X>X,X9XrX<XF o 9 +XaXaXlXlXlXlXlXlXlXlXlXlXlX",
"lXlXlXlXlXlXlXlXlXlXlXlXlX1.5.l @ ; | 5.0.i.a.H.H.K.K.K.K.P.Y.Y.I.I.W.Q.Q._.).=X>X>X8X9X4Xc.4 $ H 4XyXlXlXlXlXlXlXlXlXlXlXlXlXlX",
"lXlXlXlXlXlXlXlXlXlXlXlXlXlX6.1.) i O > x =.t.a.H.K.P.P.Y.W.~.~.Q.Q._.).*X*X>X>X8X8XoXg.3 o b {.rXyXlXlXlXlXlXlXlXlXlXlXlXlXlXlX",
"lXlXlXlXlXlXlXlXlXlXlXlXlXlXlX1.6.2.~ i O # y / w.f.K.P.Y.~.~.~._.).*X*X=X>X-X.Xb.m - $ n C.6XrXrXlXlXlXlXlXlXlXlXlXlXlXlXlXlXlX",
"lXlXlXlXlXlXlXlXlXlXlXlXlXlXlXlXlX8.6.2.) l > O @ 2 c ' } S.S.S.S.T.T.x.h.V 8 & o 3 D |.7X0XrXlXlXlXlXlXlXlXlXlXlXlXlXlXlXlXlXlX",
"lXlXlXlXlXlXlXlXlXlXlXlXlXlXlXlXlXlXlX6.8.7.4.o.K y , @ + % + # % & o & & 3 M g.A.-X,X8X7XlXlXlXlXlXlXlXlXlXlXlXlXlXlXlXlXlXlXlX",
"lXlXlXlXlXlXlXlXlXlXlXlXlXlXlXlXlXlXlXlXlXlX7.8.8.8.3.q.{ ] [ _ ' k.z.x.T.R.).=X>X>XlXlXlXlXlXlXlXlXlXlXlXlXlXlXlXlXlXlXlXlXlXlX",
"lXlXlXlXlXlXlXlXlXlXlXlXlXlXlXlXlXlXlXlXlXlXlXlXlXlX0.y.a.a.d.H.Y.Y.~.~.~.).lXlXlXlXlXlXlXlXlXlXlXlXlXlXlXlXlXlXlXlXlXlXlXlXlXlX"
};
