/* XPM */
static char *bitcoin32[] = {
/* columns rows colors chars-per-pixel */
"32 32 210 2 ",
"   c #000000",
".  c #0A0903",
"X  c #0C0B06",
"o  c #110F06",
"O  c #1A1603",
"+  c #1E1802",
"@  c #14130E",
"#  c #1D1B0C",
"$  c #141207",
"%  c #1D1C12",
"&  c #211E0B",
"*  c #231C02",
"=  c #282203",
"-  c #29260C",
";  c #332902",
":  c #3F3403",
">  c #3E3708",
",  c #28271B",
"<  c #312F1C",
"1  c #3A3616",
"2  c #302E21",
"3  c #3A3828",
"4  c #403503",
"5  c #453F0E",
"6  c #4A3F04",
"7  c #423F26",
"8  c #4D4104",
"9  c #4D460F",
"0  c #564704",
"q  c #484216",
"w  c #5A500E",
"e  c #614F05",
"r  c #6B5B07",
"t  c #655507",
"y  c #725B0A",
"u  c #62531D",
"i  c #695917",
"p  c #6C610D",
"a  c #72650C",
"s  c #7A630D",
"d  c #796607",
"f  c #6C631D",
"g  c #706112",
"h  c #73641A",
"j  c #7D721B",
"k  c #444126",
"l  c #514E2D",
"z  c #414030",
"x  c #4D4A33",
"c  c #514F3B",
"v  c #5A5639",
"b  c #605322",
"n  c #685B28",
"m  c #7B7229",
"M  c #6D683A",
"N  c #796C38",
"B  c #776D30",
"V  c #605E4B",
"C  c #63614A",
"Z  c #6B6748",
"A  c #726B4B",
"S  c #746C45",
"D  c #797446",
"F  c #716E55",
"G  c #777158",
"H  c #79745B",
"J  c #7B7753",
"K  c #6B6850",
"L  c #82670A",
"P  c #8A7307",
"I  c #83740B",
"U  c #8A7808",
"Y  c #A57C04",
"T  c #867A36",
"R  c #827D57",
"E  c #847E4F",
"W  c #827C65",
"Q  c #AA8204",
"!  c #A68807",
"~  c #B38A05",
"^  c #AC940A",
"/  c #BE9105",
"(  c #B3950A",
")  c #B29A0A",
"_  c #A69517",
"`  c #A28E1B",
"'  c #BDA20A",
"]  c #AA9A35",
"[  c #B2A121",
"{  c #BEAD28",
"}  c #B2A53E",
"|  c #B7A835",
" . c #C79A04",
".. c #D19F05",
"X. c #C8AB0C",
"o. c #C6AE0D",
"O. c #D1AA09",
"+. c #CBB20D",
"@. c #D7B90C",
"#. c #C0AA1A",
"$. c #CDB714",
"%. c #D2BA17",
"&. c #E4AE05",
"*. c #EBB307",
"=. c #E7B908",
"-. c #F1B707",
";. c #C0AF23",
":. c #C9B527",
">. c #C6B634",
",. c #DFC10E",
"<. c #DDC210",
"1. c #E3C60E",
"2. c #EAC80D",
"3. c #EDD10E",
"4. c #F2D30E",
"5. c #EAD211",
"6. c #F9DE17",
"7. c #F5CB0D",
"8. c #D9C52E",
"9. c #E0CD36",
"0. c #F6DD37",
"q. c #EAD52E",
"w. c #FEE523",
"e. c #FFE926",
"r. c #FDE52C",
"t. c #FBE42B",
"y. c #FEE73B",
"u. c #FEE93A",
"i. c #FDE635",
"p. c #9B9145",
"a. c #868158",
"s. c #B5A843",
"d. c #BFB34F",
"f. c #BEB251",
"g. c #ADA351",
"h. c #8E8974",
"j. c #948F67",
"k. c #A49E7A",
"l. c #BFB562",
"z. c #AAA578",
"x. c #B1AA77",
"c. c #B9B175",
"v. c #B1A667",
"b. c #C1B86C",
"n. c #DDC948",
"m. c #E9D846",
"M. c #EED958",
"N. c #FEE943",
"B. c #FEEB4A",
"V. c #FCE64C",
"C. c #FFEB52",
"Z. c #FFED5B",
"A. c #FAE558",
"S. c #CAC06F",
"D. c #D2C664",
"F. c #D6CB78",
"G. c #EBDF7D",
"H. c #E1CF7A",
"J. c #FFEC64",
"K. c #FEED6B",
"L. c #FFF06B",
"P. c #ECE07C",
"I. c #FEED74",
"U. c #F8E67C",
"Y. c #FFF17B",
"T. c #FFF074",
"R. c #ABA689",
"E. c #B7B293",
"W. c #B9B5A0",
"Q. c #C3BC92",
"!. c #C8BF9B",
"~. c #CCC388",
"^. c #C8C399",
"/. c #C8C395",
"(. c #D8CF85",
"). c #E2D888",
"_. c #E1D994",
"`. c #ECE188",
"'. c #FBED87",
"]. c #FFF28B",
"[. c #FEF186",
"{. c #EEE69F",
"}. c #FAEC9B",
"|. c #FFF392",
" X c #FEF39B",
".X c #D3CCAF",
"XX c #DAD5A4",
"oX c #D3CDB0",
"OX c #F6ECA6",
"+X c #FFF5A4",
"@X c #FFF8A5",
"#X c #FDF4AB",
"$X c #FFF9AB",
"%X c #EEE7B0",
"&X c #F4EEB3",
"*X c #F8EEB6",
"=X c #FFF6B4",
"-X c #FDF5BB",
";X c #FFFABD",
":X c #FCF6B4",
">X c #E8E0A4",
",X c #E7E1C6",
"<X c #FFF8C4",
"1X c #FCF5C9",
"2X c #FFF9CB",
"3X c #FFF7C5",
"4X c #FBF5D5",
"5X c #FFF9D3",
"6X c #FFFBDB",
"7X c None",
/* pixels */
"7X7X7X7X7X7X7X7X7X7X7X7X&. .~ Y Q ~  .=.7X7X7X7X7X7X7X7X7X7X7X7X",
"7X7X7X7X7X7X7X7X7X&.Q s n A W h.h.W A n s ^ =.7X7X7X7X7X7X7X7X7X",
"7X7X7X7X7X7X7X*.Y u H W.,X4X6X6X6X6X4X,XW.H u ! 2.7X7X7X7X7X7X7X",
"7X7X7X7X7X7X..y G oX4X5X5X5X5X5X5X2X5X5X5X5XoXH a O.7X7X7X7X7X7X",
"7X7X7X7X7X .b R.1X2X2X2X2X2X2X2X2X2X2X2X2X2X2X1XR.b ' 7X7X7X7X7X",
"7X7X7X7X .l !.3X-X<X3X<X<X3X3X3X<X3X<X3X<X<X<X<X<X^.b ' 7X7X7X7X",
"7X7X7X..u Q.-X*XF K E.%X;X;X-X*X&X*X<X;X-X;X-X-X;X;X!.u @.7X7X7X",
"7X7X-.y k.=X=X*XC   . 3 j.H c 3 7 c K z.>X=X=X=X=X=X:Xz.a 4.7X7X",
"7X7XY S OX#X#X#Xk.        o Z R a.R v @ 2 j.OX$X$X$X$X#XS ^ 7X7X",
"7X*.i ~.+X+X+X+X(.@       o 3 , % , x @     v _.+X+X+X$X~.i 3.7X",
"7XY N }. X X X|.E                             l `. X X@X+XN ) 7X",
"7XL v.|.|.|.|.v.X                               J |. X X@Xx.I 7X",
"*.i H.'.'.].`.7                                 % S.l.F.+X_.f 5.",
"..h U.'.F.M 7 .   ; y w . 0 P 4 + t * 8 8 + r *   l z v ).OXM %.",
" .N U.I.p.        ! 6.+.4 @.1.+.e 2.4 ( ) U %.*   % < < F. XD { ",
"~ T I.I.p.      ; %.) X.e 1.y 1.d 1.> ( @.1.p     . < g.|.@Xa.| ",
"~ T J.K.p.      t +.( o.e 1.y 1.d 1.4 ( +.@.U     1 M.T.].+Xa.s.",
" .B J.Z.s.# .   o O P +.4 @.1.$.e 5.4 ) ^ P <.=   B Z.L.].#XJ f.",
"..i M.C.A.n.} #     ; e . 6 I > + t + 8 8 * r =   s.Z.J.|.OXZ D.",
"*.i n.B.B.C.B.m                                 q m.C.L. X_.Z P.",
"7XL ] B.B.B.B.m.1                             $ | B.B.T.@Xx.R 7X",
"7X( h 0.u.N.u.N.>.-                           - 0.N.Z.].#XF c.7X",
"7X-.y :.i.i.u.u.q.1                           O 8.B.L. X^.K {.7X",
"7X7X^ g 0.r.i.i.9.&       . o     X # O       . | Z.].&XF x.7X7X",
"7X7X7.s ` r.r.r.8..       9 :.[ [ { 8.j         ] [.$Xk.H &X7X7X",
"7X7X7X@.t { e.e.8.9 5 5 q _ e.w.e.e.e.:.9 q q q l.$XQ.C XX7X7X7X",
"7X7X7X7XX.e #.w.w.t.t.t.w.w.w.w.w.w.w.w.t.y.A.Y.@XQ.V ^.7X7X7X7X",
"7X7X7X7X7XX.e _ 6.e.t.t.t.e.w.w.w.w.t.y.C.K.|.OXz.V ^.7X7X7X7X7X",
"7X7X7X7X7X7X@.d a <.t.u.N.B.N.V.N.C.J.T.]. X~.F H XX7X7X7X7X7X7X",
"7X7X7X7X7X7X7X4.) p p [ 9.m.A.J.T.Y.'.).x.A Z x.&X7X7X7X7X7X7X7X",
"7X7X7X7X7X7X7X7X7X4.' d p f m p.a.N M M a.c.{.7X7X7X7X7X7X7X7X7X",
"7X7X7X7X7X7X7X7X7X7X7X7X5.8.{ [ | d.D.P.7X7X7X7X7X7X7X7X7X7X7X7X"
};
