/* XPM */
static char *bitcoin22[] = {
/* columns rows colors chars-per-pixel */
"22 22 174 2 ",
"   c #010000",
".  c #090805",
"X  c #0D0C08",
"o  c #100D01",
"O  c #11100B",
"+  c #221E06",
"@  c #201F15",
"#  c #29260D",
"$  c #3B3203",
"%  c #3A350D",
"&  c #242315",
"*  c #2D2C1E",
"=  c #39361B",
"-  c #373628",
";  c #393726",
":  c #403B0D",
">  c #413E25",
",  c #4E460E",
"<  c #534505",
"1  c #574A05",
"2  c #594B05",
"3  c #544C0E",
"4  c #4D4715",
"5  c #4F4810",
"6  c #49441B",
"7  c #5B5312",
"8  c #57511A",
"9  c #6F5E06",
"0  c #7C6B0A",
"q  c #7F700C",
"w  c #746A19",
"e  c #43402C",
"r  c #595329",
"t  c #474532",
"y  c #5B583F",
"u  c #665F24",
"i  c #7E7423",
"p  c #78723F",
"a  c #5E5B41",
"s  c #636046",
"d  c #736E48",
"f  c #6C6951",
"g  c #826F07",
"h  c #847208",
"j  c #8D7A09",
"k  c #947C0B",
"l  c #9D7C0E",
"z  c #8D7917",
"x  c #987A14",
"c  c #927618",
"v  c #A57E0A",
"b  c #947A21",
"n  c #8E7A38",
"m  c #8C7C49",
"M  c #9A860A",
"N  c #8F8010",
"B  c #9B8813",
"V  c #988514",
"C  c #A98409",
"Z  c #A48C0C",
"A  c #AE8607",
"S  c #B08D0A",
"D  c #AB930B",
"F  c #AB960D",
"G  c #A7981C",
"H  c #BCA40C",
"J  c #B3A00E",
"K  c #998D2D",
"L  c #9D9023",
"P  c #8E833C",
"I  c #8B8232",
"U  c #998E39",
"Y  c #AB992B",
"T  c #C59503",
"R  c #C6A709",
"E  c #CCB10C",
"W  c #D6BD0E",
"Q  c #C6B31B",
"!  c #C4AE2B",
"~  c #C8B836",
"^  c #EFD71D",
"/  c #FEE51F",
"(  c #EED52C",
")  c #F5DD26",
"_  c #F0DA30",
"`  c #FDE524",
"'  c #FDE52B",
"]  c #FFE82F",
"[  c #FAE52A",
"{  c #FFE93A",
"}  c #FAE53A",
"|  c #8A8046",
" . c #948849",
".. c #9E964F",
"X. c #908756",
"o. c #97905C",
"O. c #A0974B",
"+. c #AC9B53",
"@. c #B7AA41",
"#. c #8D8965",
"$. c #8C886A",
"%. c #9E9362",
"&. c #9C9468",
"*. c #979269",
"=. c #9C9775",
"-. c #A29F7C",
";. c #ADA563",
":. c #B2A961",
">. c #ABA676",
",. c #B6B07F",
"<. c #C7B543",
"1. c #C8B660",
"2. c #C7BC68",
"3. c #C4B97A",
"4. c #DACA44",
"5. c #D6C455",
"6. c #D6C25E",
"7. c #EFDF4B",
"8. c #F5DC40",
"9. c #FFEB44",
"0. c #FFEB4B",
"q. c #FBE746",
"w. c #FFEE50",
"e. c #FFED5A",
"r. c #FFF05F",
"t. c #D5C962",
"y. c #CCC37A",
"u. c #D1C774",
"i. c #DDD27D",
"p. c #F3E262",
"a. c #FBEA69",
"s. c #FDED77",
"d. c #FFF170",
"f. c #ACA882",
"g. c #B0A788",
"h. c #B0A888",
"j. c #B4AF86",
"k. c #BFB98D",
"l. c #C6BF88",
"z. c #C7C083",
"x. c #C9C18A",
"c. c #D6CE8B",
"v. c #D6CD81",
"b. c #CDC793",
"n. c #D5CF9E",
"m. c #D7D09F",
"M. c #F9EC89",
"N. c #FFF38A",
"B. c #FFF484",
"V. c #ECE397",
"C. c #EFE79C",
"Z. c #F6ED9D",
"A. c #F7E793",
"S. c #FDF295",
"D. c #FDF49C",
"F. c #CBC4A4",
"G. c #CCC7AC",
"H. c #DAD5BB",
"J. c #E5DEA9",
"K. c #ECE4AE",
"L. c #F0E7A8",
"P. c #FFF5A5",
"I. c #FCF4AB",
"U. c #EFE8B0",
"Y. c #F1EABE",
"T. c #FFF7B1",
"R. c #FCF4BA",
"E. c #FFF9BD",
"W. c #FFF8B2",
"Q. c #FFF9C7",
"!. c #F8F2CE",
"~. c #FFFBC8",
"^. c #FFFCD4",
"/. c None",
/* pixels */
"/./././././././.C x b b x C /./././././././.",
"/././././.T c m g.G.H.H.G.g.X.b R /././././.",
"/./././.v m F.!.^.^.^.^.^.^.!.F. .Z /./././.",
"/././.l &.Y.~.~.~.~.~.~.~.Q.Q.~.Y.&.B /././.",
"/./.v %.R.l.f j.U.K.m.m.J.R.E.R.E.R.o.F /./.",
"/.T n L.R.l.O . - t y a y s j.I.W.W.L.P E /.",
"/.c 3.P.P.V.*     @ ; - e O . d C.P.P.z.V /.",
"/.n A.S.S.o..                   d S.P.Z.P /.",
"A +.N.M.u.&                     O ;.u.D.;.J ",
"x 1.s.p &   < M $ k 0 1 2 9 < 0 o = > ,.y.L ",
"x 6.a.=   o D W g H H D h D E 0   O r i.c.K ",
"v 1.p.=   + j H g H H D h D R j   6 p.N.c. .",
"C <.e.@.u     0 $ k 0 2 1 9 1 0 o I r.B.x...",
"S Y 0.w.7.6                     # 4.r.S.>.:.",
"/.z 8.q.9.~ #                   i 0.a.Z.#./.",
"/.l ! } } } 4                   w 0.B.x.*./.",
"/.R z ( ] _ %     : 7 7 w :     8 a.C.$.b./.",
"/./.S B ) ) w 5 7 Q ] ` ` G 5 4 | Z.=.f././.",
"/././.Z M ^ [ [ ` / / / / ] 9.d.V.=.-./././.",
"/./././.D j Q _ { 9.9.9.r.d.M.z.#.,././././.",
"/././././.E M N Y ~ 5.t.u.;.X.*.b./././././.",
"/././././././.W J B K  ...:.v./././././././."
};
